<?xml version="1.0" encoding="utf-8"?>
<!-- Generator: Adobe Illustrator 19.1.0, SVG Export Plug-In . SVG Version: 6.00 Build 0)  -->
<svg version="1.1" id="Layer_1" xmlns="http://www.w3.org/2000/svg" xmlns:xlink="http://www.w3.org/1999/xlink" x="0px" y="0px"
	 viewBox="0 0 617.6 159.1" style="enable-background:new 0 0 617.6 159.1;" xml:space="preserve">
<style type="text/css">
	.st0{fill:#FFFFFF;}
</style>
<g>
	<g>
		<polygon class="st0" points="0,153.6 2.1,158 63.7,158 70.5,144.9 68.4,140.5 30.7,148 67.8,92.9 65.7,88.5 36.6,88.5 9.1,88.5 
			2.4,100.5 4.5,105 37.6,98.5 		"/>
		<polygon class="st0" points="454.9,140.5 419.3,148 419.3,128.6 432.7,128.6 442.6,117.7 440.8,114 419.3,118.6 419.3,98.5 
			452.8,105 454.9,100.5 448.2,88.5 391.5,88.5 389.4,92.9 396.6,97 396.6,148 386.7,153.6 388.8,158 450.1,158 456.9,144.9 		"/>
		<polygon class="st0" points="383.3,113.2 386.7,109.6 381,88.5 317.3,88.5 311.5,109.6 314.9,113.2 337.8,98.5 337.8,148 
			327.9,153.6 330,158 368.3,158 370.3,153.6 360.5,148 360.5,98.5 		"/>
		<path class="st0" d="M580.4,87.4c-19.3,0-36.5,12.6-36.5,37.7c0,18.5,16.2,34,37.2,34c19.3,0,36.5-12.6,36.5-37.7
			C617.6,102.9,601.4,87.4,580.4,87.4z M584.2,148c-8.6,0-16.2-8.6-16.2-23.4c0-17,9-26.1,9-26.1c8.6,0,16.2,8.6,16.2,23.4
			C593.2,138.9,584.2,148,584.2,148z"/>
		<path class="st0" d="M517.2,130.9c10.9-3.9,18.4-12.2,18.4-22.9c0-12-11.7-19.5-28.1-19.5h-42.1l-2.1,4.4l7.1,4.1v51l-9.8,5.6
			l2,4.4h10.6h27.8l2-4.4l-9.8-5.6v-14.7h6.9l15.3,24.7h26l2-4.4L517.2,130.9z M493.3,98.6c0.7,0,1.3,0,1.7,0
			c10.6,0,17.5,6,17.5,13.6c0,6.1-3.1,10.5-6.1,13.4l-13.1-4.2V98.6z"/>
		<path class="st0" d="M208.2,133.3c21.2,0,32.8-10.3,32.8-23.7c0-12-11.7-21.1-28.1-21.1H168l-2,4.4l9.8,5.6V148l-9.8,5.6l2,4.4
			h10.6h27.8l2-4.4l-9.8-5.6v-14.7H208.2z M198.5,98.6c0.7,0,1.3,0,1.7,0c10.6,0,17.5,6,17.5,13.6c0,6.1-3.1,10.5-6.1,13.4
			l-13.1-4.2V98.6z"/>
		<path class="st0" d="M159.1,153.6L126,88.5h-24.9l-2,4.4l7.7,4.6L87,147.1l-11.2,6.6l2,4.4h26.2l2-4.4l-8.9-5.1l3.9-9.9h26
			l5.1,10.3l-8.2,4.7l2,4.4H157L159.1,153.6z M105.1,128.6l7.6-19.1l9.5,19.1H105.1z"/>
		<path class="st0" d="M310.4,148l-30.2-59.5h-24.9l-2,4.4l7.7,4.6l-19.7,49.6l-11.2,6.6l2,4.4h26.2l2-4.4l-8.9-5.1l3.9-9.9h26
			l5.1,10.3l-8.2,4.7l2,4.4h37.8l2-4.4L310.4,148z M259.4,128.6l7.6-19.1l9.5,19.1H259.4z"/>
	</g>
	<g>
		<polygon class="st0" points="461.2,53 425.7,60.6 425.7,41.2 439,41.2 448.9,30.3 447.2,26.6 425.7,31.2 425.7,11.1 459.2,17.6 
			461.2,13.1 454.5,1.1 397.8,1.1 395.8,5.5 402.9,9.6 402.9,60.6 393.1,66.2 395.1,70.6 456.5,70.6 463.3,57.5 		"/>
		<polygon class="st0" points="109.5,11.1 143,17.6 145.1,13.1 138.3,1.1 81.7,1.1 79.6,5.5 86.7,9.6 86.7,11.1 86.7,60.6 
			76.9,66.2 79,70.6 117.3,70.6 119.3,66.2 109.5,60.6 109.5,43.1 122.9,43.1 132.7,32.3 131,28.6 109.5,33.1 109.5,11.1 		"/>
		<polygon class="st0" points="186.2,11.1 196.1,5.5 194,1.1 155.7,1.1 153.6,5.5 163.5,11.1 163.5,60.6 153.6,66.2 155.7,70.6 
			194,70.6 196.1,66.2 186.2,60.6 		"/>
		<polygon class="st0" points="275.4,53 246.8,59.1 246.8,11.1 256.7,5.5 254.6,1.1 216.3,1.1 214.3,5.5 224.1,11.1 224.1,60.6 
			214.3,66.2 216.3,70.6 270.6,70.6 277.4,57.5 		"/>
		<polygon class="st0" points="371.9,11.1 381.7,5.5 379.7,1.1 353.2,1.1 335.4,35.8 317.8,1.1 292.9,1.1 290.8,5.5 298.1,9.6 
			298.1,59.6 286.9,66.2 288.9,70.6 315.2,70.6 317.2,66.2 308.3,61.1 308.3,29.8 328.5,70.3 329.4,70.1 349.1,31.6 349.1,60.6 
			339.3,66.2 341.4,70.6 379.7,70.6 381.7,66.2 371.9,60.6 		"/>
		
			<rect x="47.6" y="26.7" transform="matrix(0.7071 -0.7071 0.7071 0.7071 -8.7323 50.6153)" class="st0" width="18.4" height="18.4"/>
		
			<rect x="551.7" y="26.7" transform="matrix(0.7071 -0.7071 0.7071 0.7071 138.9264 407.0949)" class="st0" width="18.4" height="18.4"/>
		<path class="st0" d="M506.4,71.7c-10.3,0-20.8-2-26.2-4.8L476,46.1l4.4-2.1c0,0,12.1,14,33.5,18.7c0.8-1.6,1.3-3.4,1.3-5.2
			c0-14.8-37.2-12.9-37.2-36.9C478,8.9,487.4,0,505.3,0c7.9,0,12.8,0.7,24.2,2.8l4.1,20.2l-4.4,2.1c0,0-14.7-14-30.1-18.5
			c-0.6,1.3-1.1,2.8-1.1,4.5c0,13.2,37.3,14,37.3,37.9C535.2,61.1,523.8,71.7,506.4,71.7z"/>
	</g>
</g>
</svg>
